<svg aria-hidden="true" version="1.1" xmlns="http://www.w3.org/2000/svg" xmlns:xlink="http://www.w3.org/1999/xlink">
<defs>
<svg xmlns="http://www.w3.org/2000/svg" width="14" height="14" viewBox="0 0 14 14" id="circle">
<circle cx="7" cy="7" r="7"/>
</svg>
<svg xmlns="http://www.w3.org/2000/svg" width="29" height="28" viewBox="0 0 29 28"  id="phone">
<path d="M27.3889 19.4444C25.375 19.4444 23.4417 19.1333 21.6372 18.5578C21.4761 18.5111 21.2989 18.48 21.1378 18.48C20.7189 18.48 20.3161 18.6356 19.9939 18.9311L16.4494 22.3533C11.89 20.1133 8.15222 16.52 5.83222 12.1022L9.37667 8.66444C9.82778 8.26 9.95667 7.65333 9.77944 7.10889C9.18333 5.36667 8.86111 3.5 8.86111 1.55556C8.86111 0.7 8.13611 0 7.25 0H1.61111C0.725 0 0 0.7 0 1.55556C0 16.1622 12.2606 28 27.3889 28C28.275 28 29 27.3 29 26.4444V21C29 20.1444 28.275 19.4444 27.3889 19.4444ZM3.27056 3.11111H5.68722C5.8 4.48 6.04167 5.83333 6.41222 7.12444L4.47889 9.00667C3.83444 7.12444 3.41556 5.16444 3.27056 3.11111ZM25.7778 24.8422C23.6511 24.7022 21.5889 24.2978 19.6556 23.66L21.5889 21.7933C22.9583 22.1667 24.36 22.4 25.7778 22.4933V24.8422Z" fill="#E4E3D6"/>
</svg>
<svg xmlns="http://www.w3.org/2000/svg" width="28" height="28" viewBox="0 0 28 28"  id="google">
<path d="M14.3256 11.4459V16.8568H22.0085C21.2935 20.2952 18.3002 22.2708 14.3256 22.2708C9.69624 22.2085 5.97682 18.5207 5.97682 13.993C5.97682 9.46528 9.69624 5.77748 14.3256 5.71517C16.2499 5.71292 18.1149 6.36597 19.6004 7.56218L23.7689 3.48559C18.9873 -0.625381 12.0041 -1.15413 6.63239 2.18805C1.26069 5.53024 -1.2085 11.9401 0.573105 17.9177C2.35471 23.8952 7.95893 28.0038 14.3256 28C21.4875 28 28 22.9058 28 13.9922C27.9889 13.134 27.8814 12.2796 27.6793 11.4443L14.3256 11.4459Z" fill="#E4E3D6"/>
</svg>
<svg xmlns="http://www.w3.org/2000/svg" width="28" height="23" viewBox="0 0 28 23"  id="telegram">
<path d="M27.9765 1.98587C28.1947 0.662594 26.8545 -0.381876 25.6011 0.134707L0.638431 10.4237C-0.26035 10.7941 -0.194607 12.0721 0.737567 12.3508L5.88551 13.8898C6.86802 14.1836 7.93192 14.0317 8.78988 13.4752L20.3962 5.94759C20.7462 5.72059 21.1277 6.18776 20.8287 6.47718L12.4742 14.5633C11.6638 15.3478 11.8246 16.6769 12.7994 17.2508L22.1532 22.7573C23.2023 23.375 24.5519 22.7545 24.7482 21.5644L27.9765 1.98587Z" fill="#E4E3D6"/>
</svg>
<svg xmlns="http://www.w3.org/2000/svg" width="20" height="28" viewBox="0 0 20 28"  id="figma">
<path d="M5.63908 27.9998C3.26247 28.0179 1.13357 26.5613 0.330339 24.3676C-0.472892 22.1739 0.224909 19.7218 2.07041 18.2531C0.761427 17.2141 0.000909312 15.6509 0.000909312 13.9993C0.000909312 12.3478 0.761427 10.7845 2.07041 9.74553C0.224318 8.27729 -0.473902 5.8251 0.32948 3.63126C1.13286 1.43743 3.26234 -0.0187838 5.63908 0.000183094H14.3609C16.7377 -0.0187838 18.8671 1.43743 19.6705 3.63126C20.4739 5.8251 19.7757 8.27729 17.9296 9.74553C19.7751 11.2142 20.4729 13.6663 19.6697 15.86C18.8664 18.0537 16.7375 19.5103 14.3609 19.4921C13.2632 19.4934 12.189 19.18 11.2704 18.5905V22.5104C11.2571 25.5497 8.73813 28.0051 5.63908 27.9998ZM5.60768 19.4935C3.9169 19.5197 2.56531 20.8805 2.58304 22.5388C2.60078 24.1972 3.98117 25.5299 5.67214 25.5214C7.36311 25.5127 8.72934 24.166 8.72955 22.5076V19.4935H5.60625H5.60768ZM14.3623 10.9859C12.6671 10.9944 11.299 12.3476 11.3047 14.0102C11.3105 15.6729 12.6879 17.0169 14.3833 17.0141C16.0786 17.0113 17.4514 15.6627 17.4514 14C17.4451 12.3314 16.0624 10.9828 14.3609 10.9859H14.3623ZM5.64051 10.9859C4.54251 10.9801 3.52479 11.5493 2.97071 12.479C2.41664 13.4087 2.41038 14.5577 2.9543 15.4931C3.49822 16.4286 4.50968 17.0084 5.60768 17.0141H8.72955V10.9859H5.64051ZM11.2704 2.47831V8.50799H14.3595C16.0118 8.51551 17.375 7.24157 17.4471 5.62263V6.23161V5.49243C17.44 3.82574 16.0604 2.47831 14.3609 2.47831H11.2704ZM5.63766 2.47831C4.53966 2.47831 3.52507 3.0528 2.97607 3.98537C2.42707 4.91794 2.42707 6.06692 2.97607 6.99949C3.52507 7.93207 4.53966 8.50656 5.63766 8.50656H8.72955V2.47831H5.63766Z" fill="#E4E3D6"/>
</svg>
<svg xmlns="http://www.w3.org/2000/svg" width="28" height="28" viewBox="0 0 28 28"  id="linkedin">
<path d="M15.5555 28H9.33331V9.33333H15.5555V12.4444C16.8818 10.7571 18.8932 9.75111 21.0388 9.702C24.8975 9.72342 28.0111 12.8635 28 16.7222V28H21.7777V17.5C21.5289 15.7619 20.0383 14.4722 18.2824 14.476C17.5144 14.5003 16.7895 14.8365 16.2749 15.4072C15.7603 15.9778 15.5005 16.7336 15.5555 17.5V28ZM6.22221 28H0V9.33333H6.22221V28ZM3.1111 6.22222C1.39289 6.22222 0 4.82933 0 3.11111C0 1.39289 1.39289 0 3.1111 0C4.82932 0 6.22221 1.39289 6.22221 3.11111C6.22221 3.93623 5.89443 4.72755 5.31099 5.311C4.72754 5.89445 3.93622 6.22222 3.1111 6.22222Z" fill="#E4E3D6"/>
</svg>
<svg xmlns="http://www.w3.org/2000/svg" width="22" height="28" viewBox="0 0 22 28"  id="city">
<path d="M10.9999 28C9.01514 26.3244 7.1754 24.4875 5.49997 22.5085C2.9857 19.5364 1.38861e-06 15.1102 1.38861e-06 10.8924C-0.00222714 6.48729 2.67809 2.51497 6.79022 0.829111C10.9023 -0.856753 15.6357 0.0761331 18.7816 3.19245C20.8503 5.23075 22.0092 8.0034 21.9999 10.8924C21.9999 15.1102 19.0142 19.5364 16.4999 22.5085C14.8245 24.4875 12.9848 26.3244 10.9999 28ZM10.9999 3.11624C6.66274 3.12138 3.14804 6.59989 3.14284 10.8924C3.14284 12.7058 3.97098 15.8458 7.91211 20.5131C8.88346 21.6609 9.91412 22.7583 10.9999 23.8009C12.0859 22.7596 13.117 21.6638 14.0894 20.5178C18.0289 15.8443 18.857 12.7043 18.857 10.8924C18.8519 6.59989 15.3372 3.12138 10.9999 3.11624ZM10.9999 15.5581C8.39633 15.5581 6.28569 13.4692 6.28569 10.8924C6.28569 8.31562 8.39633 6.22671 10.9999 6.22671C13.6036 6.22671 15.7142 8.31562 15.7142 10.8924C15.7142 12.1298 15.2175 13.3166 14.3334 14.1916C13.4493 15.0666 12.2502 15.5581 10.9999 15.5581Z" fill="#E4E3D6"/>
</svg>
</defs>
</svg>